<svg width="17" height="17" viewBox="0 0 17 17" fill="none" xmlns="http://www.w3.org/2000/svg">
<path d="M8.5 17C13.1944 17 17 13.1944 17 8.5C17 3.80558 13.1944 0 8.5 0C3.80558 0 0 3.80558 0 8.5C0 13.1944 3.80558 17 8.5 17Z" fill="#6DA544"/>
<path d="M8.5 3.32611L15.5217 8.50002L8.5 13.6739L1.47827 8.50002L8.5 3.32611Z" fill="#FFDA44"/>
<path d="M8.50002 11.4565C10.1329 11.4565 11.4565 10.1329 11.4565 8.50002C11.4565 6.86719 10.1329 5.54352 8.50002 5.54352C6.86719 5.54352 5.54352 6.86719 5.54352 8.50002C5.54352 10.1329 6.86719 11.4565 8.50002 11.4565Z" fill="#F0F0F0"/>
<path d="M7.02174 8.31528C6.50762 8.31528 6.01147 8.39347 5.54443 8.53857C5.56512 10.1536 6.88009 11.4566 8.50001 11.4566C9.50168 11.4566 10.3863 10.958 10.9211 10.1959C10.0062 9.05053 8.59832 8.31528 7.02174 8.31528Z" fill="#0052B4"/>
<path d="M11.4018 9.06647C11.4374 8.88306 11.4566 8.69383 11.4566 8.50002C11.4566 6.86716 10.1329 5.54352 8.50009 5.54352C7.28173 5.54352 6.23583 6.28066 5.7832 7.33313C6.1833 7.25023 6.59754 7.20656 7.02185 7.20656C8.73902 7.20653 10.2925 7.92033 11.4018 9.06647Z" fill="#0052B4"/>
</svg>
