<svg width="89" height="22" viewBox="0 0 89 22" fill="none" xmlns="http://www.w3.org/2000/svg">
<path d="M86.9145 20.2388C86.9686 20.2393 87.0224 20.2287 87.0723 20.2075C87.1222 20.1863 87.1672 20.155 87.2046 20.1156C87.242 20.0762 87.2709 20.0295 87.2896 19.9784C87.3083 19.9273 87.3163 19.8728 87.3132 19.8185C87.3132 19.5204 87.1343 19.378 86.7672 19.378H86.174V20.9386H86.3971V20.2583H86.6713L86.6775 20.2666L87.103 20.9386H87.3416L86.8838 20.2431L86.9145 20.2388ZM86.6564 20.0824H86.3977V19.5549H86.7256C86.895 19.5549 87.0881 19.5827 87.0881 19.8056C87.0881 20.0619 86.8927 20.0824 86.6551 20.0824H86.6564ZM0 3.17525H3.2931V15.2305H9.38961V18.2847H0V3.17525ZM10.8455 8.04008H14.0091V18.2791H10.8455V8.04008ZM12.4273 2.94971C12.7903 2.94977 13.1451 3.058 13.4468 3.2607C13.7486 3.46341 13.9838 3.75149 14.1226 4.08851C14.2615 4.42553 14.2978 4.79637 14.2269 5.15412C14.1561 5.51188 13.9812 5.84049 13.7246 6.0984C13.4679 6.35631 13.1409 6.53193 12.7849 6.60307C12.4289 6.67421 12.0599 6.63767 11.7246 6.49806C11.3893 6.35845 11.1027 6.12205 10.901 5.81875C10.6994 5.51545 10.5918 5.15887 10.5918 4.7941C10.5918 4.55186 10.6393 4.312 10.7315 4.0882C10.8238 3.86441 10.959 3.66107 11.1294 3.4898C11.2999 3.31853 11.5022 3.18268 11.7249 3.09001C11.9476 2.99734 12.1863 2.94966 12.4273 2.94971ZM27.2428 3.17293H30.4064V12.2028L33.9918 8.03544H37.8705L33.7183 12.7758L37.7832 18.2834H33.807L30.4486 13.2222H30.4071V18.2828H27.2435L27.2428 3.17293ZM15.7633 8.04107H18.8013V9.44035H18.8445C19.1479 8.91786 19.5869 8.48802 20.1145 8.19671C20.6421 7.90541 21.2385 7.76359 21.84 7.78639C25.0481 7.78639 25.6386 9.90765 25.6386 12.6635V18.2785H22.475V13.3004C22.475 12.112 22.4533 10.5846 20.8273 10.5846C19.1829 10.5846 18.9292 11.8786 18.9292 13.2139V18.2771H15.7656L15.7633 8.04107Z" fill="white"/>
<path d="M44.5328 11.9686C44.5388 11.7107 44.4927 11.4542 44.3972 11.2147C44.3017 10.9752 44.1589 10.7577 43.9773 10.5753C43.7957 10.3929 43.5791 10.2494 43.3408 10.1536C43.1024 10.0578 42.8471 10.0117 42.5905 10.0179C42.0377 9.98337 41.4936 10.1685 41.0754 10.5334C40.6572 10.8983 40.3984 11.4138 40.3549 11.9686H44.5328ZM47.2126 16.5059C46.6869 17.1466 46.026 17.6618 45.2778 18.0141C44.5295 18.3664 43.7127 18.5471 42.8864 18.5431C39.7228 18.5431 37.1899 16.4208 37.1899 13.1344C37.1899 9.84804 39.7225 7.72677 42.8864 7.72677C45.8434 7.72677 47.6977 9.84638 47.6977 13.1344V14.1313H40.3549C40.4463 14.6967 40.7379 15.2098 41.1761 15.5761C41.6142 15.9424 42.1693 16.1373 42.7391 16.1247C43.1894 16.1219 43.6318 16.006 44.0261 15.7874C44.4205 15.5689 44.7541 15.2547 44.9968 14.8735L47.2126 16.5059ZM54.2918 10.5151C52.71 10.5151 51.7609 11.5765 51.7609 13.1232C51.7609 14.6698 52.7097 15.7323 54.2918 15.7323C55.8739 15.7323 56.825 14.6725 56.825 13.1232C56.825 11.5739 55.8756 10.5151 54.2918 10.5151ZM59.7375 18.2771H56.825V16.9192H56.7818C56.4164 17.4132 55.9425 17.8156 55.397 18.0953C54.8515 18.3749 54.249 18.5242 53.6367 18.5315C50.597 18.5315 48.5947 16.3268 48.5947 13.2089C48.5947 10.3455 50.3666 7.71617 53.2795 7.71617C54.5887 7.71617 55.8117 8.07618 56.5291 9.07405H56.5706V3.17193H59.7372L59.7375 18.2771ZM81.0947 18.2831H77.9311V13.304C77.9311 12.1167 77.91 10.5882 76.2857 10.5882C74.638 10.5882 74.3859 11.8819 74.3859 13.2176V18.2828H71.2223V8.04372H74.2594V9.44299H74.3019C74.6058 8.92072 75.045 8.49108 75.5727 8.19982C76.1004 7.90856 76.6968 7.76659 77.2984 7.78904C80.5048 7.78904 81.096 9.90864 81.096 12.6661L81.0947 18.2831ZM67.6527 6.64412C67.2896 6.64418 66.9347 6.53604 66.6327 6.33335C66.3308 6.13067 66.0954 5.84255 65.9564 5.50544C65.8174 5.16833 65.781 4.79735 65.8517 4.43944C65.9225 4.08152 66.0973 3.75273 66.354 3.49465C66.6107 3.23657 66.9378 3.06078 67.2939 2.98953C67.65 2.91827 68.0192 2.95474 68.3547 3.09433C68.6901 3.23392 68.9769 3.47035 69.1787 3.77373C69.3805 4.07711 69.4882 4.43381 69.4883 4.79873C69.4883 5.04103 69.4409 5.28096 69.3487 5.50483C69.2564 5.7287 69.1212 5.93212 68.9508 6.10348C68.7803 6.27484 68.578 6.41078 68.3553 6.50354C68.1325 6.59631 67.8938 6.64407 67.6527 6.64412ZM69.2345 18.2831H66.0676V8.04372H69.2345V18.2831ZM82.6719 0.00146139H64.4779C64.065 -0.00322207 63.6671 0.157052 63.3716 0.447065C63.0762 0.737077 62.9074 1.1331 62.9024 1.54811V19.9089C62.9073 20.3241 63.0759 20.7204 63.3714 21.0107C63.6668 21.301 64.0648 21.4616 64.4779 21.4572H82.6719C83.0859 21.4624 83.485 21.3023 83.7816 21.012C84.0782 20.7217 84.248 20.3249 84.2537 19.9089V1.54679C84.2478 1.13095 84.0779 0.73448 83.7813 0.444474C83.4847 0.154469 83.0857 -0.00534773 82.6719 0.000136631V0.00146139ZM86.6834 18.6828C86.2985 18.6866 85.9307 18.8433 85.6605 19.1188C85.3903 19.3943 85.2397 19.7662 85.2415 20.153C85.2434 20.5398 85.3976 20.9102 85.6704 21.1831C85.9432 21.456 86.3125 21.6091 86.6974 21.6091C87.0823 21.6091 87.4516 21.456 87.7244 21.1831C87.9972 20.9102 88.1515 20.5398 88.1533 20.153C88.1552 19.7662 88.0045 19.3943 87.7343 19.1188C87.4641 18.8433 87.0963 18.6866 86.7114 18.6828H86.6834ZM86.6834 21.4416C86.4309 21.4459 86.1829 21.3747 85.9707 21.2373C85.7584 21.0998 85.5915 20.9022 85.491 20.6694C85.3905 20.4366 85.361 20.1791 85.4061 19.9295C85.4512 19.6798 85.569 19.4492 85.7445 19.2668C85.9201 19.0844 86.1455 18.9584 86.3923 18.9048C86.6391 18.8511 86.8961 18.8722 87.131 18.9654C87.3659 19.0586 87.5679 19.2197 87.7117 19.4283C87.8554 19.6369 87.9344 19.8837 87.9386 20.1374V20.1589C87.9457 20.4918 87.8209 20.8138 87.5918 21.0542C87.3626 21.2946 87.0479 21.4338 86.7167 21.441H86.6837" fill="white"/>
</svg>
