<svg width="51" height="52" viewBox="0 0 51 52" fill="none" xmlns="http://www.w3.org/2000/svg">
<path d="M25.5 0.420898C11.4189 0.420898 0 11.8398 0 25.9209C0 40.002 11.4189 51.4209 25.5 51.4209C39.5811 51.4209 51 40.002 51 25.9209C51 11.8398 39.5811 0.420898 25.5 0.420898ZM18.09 38.9697H11.8796V20.2856H18.09V38.9697ZM14.985 17.7343H14.9445C12.8605 17.7343 11.5127 16.2996 11.5127 14.5067C11.5127 12.6732 12.9017 11.2783 15.0262 11.2783C17.1507 11.2783 18.4581 12.6732 18.4986 14.5067C18.4986 16.2996 17.1507 17.7343 14.985 17.7343ZM40.4834 38.9697H34.2738V28.9742C34.2738 26.4621 33.3746 24.7489 31.1275 24.7489C29.412 24.7489 28.3902 25.9046 27.9412 27.0201C27.777 27.4193 27.7369 27.9773 27.7369 28.5356V38.9697H21.5269C21.5269 38.9697 21.6082 22.0385 21.5269 20.2856H27.7369V22.9311C28.5622 21.6579 30.0388 19.8471 33.3337 19.8471C37.4197 19.8471 40.4834 22.5174 40.4834 28.2563V38.9697Z" fill="white"/>
</svg>
