<svg width="31" height="30" viewBox="0 0 31 30" fill="none" xmlns="http://www.w3.org/2000/svg">
<path d="M8.24915 0.786682L12.5753 4.98208C14.1203 6.48044 13.5023 9.02764 11.4938 9.62699C10.1031 10.0765 9.33063 11.5748 9.6397 12.9234C10.4122 15.9201 14.4293 19.9656 17.674 20.7148C19.0646 21.1643 20.6096 20.2653 21.0731 18.9168C21.6911 16.9689 24.3177 16.3696 25.8627 17.8679L30.1888 22.0633C31.2704 23.262 31.2704 25.0601 30.1888 26.1089L27.2533 28.9558C24.1632 31.8027 15.9744 28.6561 8.71267 21.6138C1.45094 14.5716 -1.94823 6.63027 1.14193 3.63356L4.07752 0.786682C5.31356 -0.262226 7.16762 -0.262226 8.24915 0.786682Z" fill="white"/>
</svg>
