<svg width="52" height="52" viewBox="0 0 52 52" fill="none" xmlns="http://www.w3.org/2000/svg">
<path d="M26 0.420898C11.6428 0.420898 0 11.8398 0 25.9209C0 40.002 11.6428 51.4209 26 51.4209C40.3572 51.4209 52 40.002 52 25.9209C52 11.8398 40.3572 0.420898 26 0.420898ZM37.8713 20.3031C37.8828 20.5541 37.8884 20.8062 37.8884 21.0595C37.8884 28.7936 31.8859 37.7122 20.9088 37.7125H20.9092H20.9088C17.5386 37.7125 14.4024 36.7437 11.7614 35.0834C12.2284 35.1375 12.7036 35.1643 13.1849 35.1643C15.981 35.1643 18.5542 34.2289 20.597 32.6589C17.9845 32.6115 15.7819 30.9193 15.0217 28.5936C15.3855 28.6621 15.7596 28.6995 16.1433 28.6995C16.688 28.6995 17.2156 28.6275 17.7171 28.4932C14.9864 27.9571 12.9294 25.5902 12.9294 22.756C12.9294 22.7295 12.9294 22.7058 12.9302 22.6813C13.7343 23.1198 14.654 23.3836 15.6331 23.4132C14.0307 22.3645 12.9774 20.572 12.9774 18.5412C12.9774 17.4689 13.2729 16.4642 13.7855 15.5993C16.7285 19.1408 21.1266 21.47 26.0865 21.7147C25.9841 21.2859 25.9314 20.8393 25.9314 20.3801C25.9314 17.149 28.6041 14.5277 31.8997 14.5277C33.6164 14.5277 35.1668 15.2393 36.2558 16.3771C37.6154 16.114 38.8921 15.6269 40.0454 14.9565C39.5991 16.3226 38.6533 17.4689 37.421 18.1938C38.6283 18.0521 39.7788 17.7381 40.848 17.272C40.0493 18.4459 39.0365 19.477 37.8713 20.3031Z" fill="white"/>
</svg>
