<svg width="19" height="19" viewBox="0 0 19 19" fill="none" xmlns="http://www.w3.org/2000/svg">
<path d="M9.5 0C4.2541 0 0 4.2541 0 9.5C0 14.7459 4.2541 19 9.5 19C14.7459 19 19 14.7459 19 9.5C19 4.2541 14.7459 0 9.5 0ZM13.8376 7.40709C13.8418 7.50059 13.8438 7.59452 13.8438 7.68889C13.8438 10.5702 11.6506 13.8928 7.63975 13.893H7.63989H7.63975C6.40833 13.893 5.26243 13.532 4.29744 12.9135C4.46806 12.9336 4.64172 12.9436 4.81755 12.9436C5.83922 12.9436 6.77942 12.5952 7.52581 12.0102C6.57126 11.9926 5.76645 11.3621 5.48871 10.4957C5.62164 10.5212 5.75833 10.5351 5.89851 10.5351C6.09753 10.5351 6.29033 10.5083 6.47356 10.4583C5.47581 10.2586 4.7242 9.37679 4.7242 8.32091C4.7242 8.31105 4.7242 8.30221 4.72449 8.29308C5.01832 8.45644 5.35433 8.55473 5.71209 8.56574C5.1266 8.17508 4.74174 7.50726 4.74174 6.75072C4.74174 6.35121 4.84973 5.97693 5.03702 5.65469C6.11232 6.9741 7.71933 7.84182 9.5316 7.933C9.4942 7.77325 9.47492 7.60684 9.47492 7.43579C9.47492 6.23206 10.4515 5.25547 11.6557 5.25547C12.2829 5.25547 12.8494 5.5206 13.2473 5.94446C13.7441 5.84647 14.2106 5.66498 14.632 5.41521C14.4689 5.92416 14.1233 6.35121 13.6731 6.62127C14.1142 6.5685 14.5346 6.45152 14.9252 6.27786C14.6334 6.7152 14.2633 7.09934 13.8376 7.40709Z" fill="white"/>
</svg>
