<svg width="20" height="19" viewBox="0 0 20 19" fill="none" xmlns="http://www.w3.org/2000/svg">
<path d="M20 9.5C20 4.25273 15.5234 0 10 0C4.47656 0 0 4.25273 0 9.5C0 14.7473 4.47656 19 10 19C10.0586 19 10.1172 19 10.1758 18.9963V11.6041H8.02734V9.22539H10.1758V7.47383C10.1758 5.44394 11.4805 4.33809 13.3867 4.33809C14.3008 4.33809 15.0859 4.40117 15.3125 4.43086V6.55352H14C12.9648 6.55352 12.7617 7.02109 12.7617 7.70762V9.22168H15.2422L14.918 11.6004H12.7617V18.6326C16.9414 17.4934 20 13.8381 20 9.5Z" fill="white"/>
</svg>
