<svg width="52" height="52" viewBox="0 0 52 52" fill="none" xmlns="http://www.w3.org/2000/svg">
<path d="M37.5961 16.9603C37.3562 16.3341 36.9733 15.7673 36.4758 15.302C35.9927 14.823 35.4045 14.4543 34.7538 14.2232C34.226 14.0258 33.4333 13.7909 31.9731 13.7269C30.3935 13.6575 29.9199 13.6426 25.921 13.6426C21.9217 13.6426 21.4481 13.6571 19.8689 13.7265C18.4087 13.7909 17.6156 14.0258 17.0882 14.2232C16.4375 14.4543 15.8489 14.823 15.3662 15.302C14.8687 15.7673 14.4858 16.3337 14.2455 16.9603C14.0405 17.4685 13.7965 18.2323 13.7301 19.6384C13.658 21.1591 13.6425 21.6151 13.6425 25.4663C13.6425 29.3171 13.658 29.7732 13.7301 31.2942C13.7965 32.7003 14.0405 33.4638 14.2455 33.9719C14.4858 34.5985 14.8683 35.165 15.3658 35.6302C15.8489 36.1093 16.4371 36.4779 17.0878 36.709C17.6156 36.9068 18.4087 37.1417 19.8689 37.2057C21.4481 37.2751 21.9213 37.2896 25.9206 37.2896C29.9203 37.2896 30.3939 37.2751 31.9727 37.2057C33.4329 37.1417 34.226 36.9068 34.7538 36.709C36.0599 36.2238 37.0923 35.2297 37.5961 33.9719C37.8011 33.4638 38.0451 32.7003 38.1119 31.2942C38.184 29.7732 38.1991 29.3171 38.1991 25.4663C38.1991 21.6151 38.184 21.1591 38.1119 19.6384C38.0455 18.2323 37.8015 17.4685 37.5961 16.9603ZM25.921 32.8716C21.6734 32.8716 18.23 29.5562 18.23 25.4659C18.23 21.3756 21.6734 18.0602 25.921 18.0602C30.1682 18.0602 33.6116 21.3756 33.6116 25.4659C33.6116 29.5562 30.1682 32.8716 25.921 32.8716ZM33.9156 19.4981C32.9231 19.4981 32.1183 18.7232 32.1183 17.7674C32.1183 16.8116 32.9231 16.0367 33.9156 16.0367C34.9082 16.0367 35.7129 16.8116 35.7129 17.7674C35.7125 18.7232 34.9082 19.4981 33.9156 19.4981Z" fill="white"/>
<path d="M25.9208 0C11.6073 0 0 11.6073 0 25.9208C0 40.2343 11.6073 51.8416 25.9208 51.8416C40.2343 51.8416 51.8416 40.2343 51.8416 25.9208C51.8416 11.6073 40.2343 0 25.9208 0ZM40.7152 32.0573C40.6433 33.6418 40.3913 34.7235 40.0235 35.6704C39.2502 37.6697 37.6697 39.2502 35.6704 40.0235C34.7239 40.3913 33.6418 40.6429 32.0577 40.7152C30.4705 40.7876 29.9634 40.805 25.9212 40.805C21.8786 40.805 21.3719 40.7876 19.7843 40.7152C18.2003 40.6429 17.1181 40.3913 16.1716 40.0235C15.1781 39.6497 14.2787 39.064 13.5351 38.3065C12.7781 37.5633 12.1923 36.6635 11.8185 35.6704C11.4507 34.7239 11.1988 33.6418 11.1268 32.0577C11.0536 30.4701 11.0366 29.963 11.0366 25.9208C11.0366 21.8786 11.0536 21.3715 11.1264 19.7843C11.1984 18.1999 11.4499 17.1181 11.8177 16.1712C12.1915 15.1781 12.7777 14.2783 13.5351 13.5351C14.2783 12.7777 15.1781 12.1919 16.1712 11.8181C17.1181 11.4503 18.1999 11.1988 19.7843 11.1264C21.3715 11.054 21.8786 11.0366 25.9208 11.0366C29.963 11.0366 30.4701 11.054 32.0573 11.1268C33.6418 11.1988 34.7235 11.4503 35.6704 11.8177C36.6635 12.1915 37.5633 12.7777 38.3069 13.5351C39.064 14.2787 39.6501 15.1781 40.0235 16.1712C40.3917 17.1181 40.6433 18.1999 40.7156 19.7843C40.788 21.3715 40.805 21.8786 40.805 25.9208C40.805 29.963 40.788 30.4701 40.7152 32.0573Z" fill="white"/>
</svg>
