<svg width="20" height="19" viewBox="0 0 20 19" fill="none" xmlns="http://www.w3.org/2000/svg">
<path d="M11.9141 9.5C11.9141 10.5043 11.0571 11.3184 10 11.3184C8.94287 11.3184 8.08594 10.5043 8.08594 9.5C8.08594 8.49573 8.94287 7.68164 10 7.68164C11.0571 7.68164 11.9141 8.49573 11.9141 9.5Z" fill="white"/>
<path d="M14.4764 6.28298C14.3844 6.04612 14.2376 5.83173 14.0469 5.65575C13.8617 5.47455 13.6361 5.3351 13.3867 5.24769C13.1843 5.17303 12.8804 5.08418 12.3205 5.05997C11.7149 5.03373 11.5333 5.02808 10.0001 5.02808C8.46677 5.02808 8.28519 5.03358 7.67972 5.05982C7.11987 5.08418 6.81577 5.17303 6.61359 5.24769C6.36411 5.3351 6.13843 5.47455 5.95334 5.65575C5.7626 5.83173 5.61581 6.04597 5.52365 6.28298C5.44507 6.4752 5.35153 6.7641 5.32605 7.29595C5.29843 7.87115 5.29248 8.04365 5.29248 9.50034C5.29248 10.9569 5.29843 11.1294 5.32605 11.7047C5.35153 12.2366 5.44507 12.5253 5.52365 12.7175C5.61581 12.9546 5.76245 13.1688 5.95319 13.3448C6.13843 13.526 6.36395 13.6654 6.61343 13.7528C6.81577 13.8276 7.11987 13.9165 7.67972 13.9407C8.28519 13.9669 8.46661 13.9724 9.99997 13.9724C11.5335 13.9724 11.7151 13.9669 12.3204 13.9407C12.8802 13.9165 13.1843 13.8276 13.3867 13.7528C13.8875 13.5693 14.2833 13.1933 14.4764 12.7175C14.555 12.5253 14.6486 12.2366 14.6742 11.7047C14.7018 11.1294 14.7076 10.9569 14.7076 9.50034C14.7076 8.04365 14.7018 7.87115 14.6742 7.29595C14.6487 6.7641 14.5552 6.4752 14.4764 6.28298ZM10.0001 12.3014C8.37155 12.3014 7.05136 11.0473 7.05136 9.50019C7.05136 7.95305 8.37155 6.69901 10.0001 6.69901C11.6285 6.69901 12.9487 7.95305 12.9487 9.50019C12.9487 11.0473 11.6285 12.3014 10.0001 12.3014ZM13.0653 7.2429C12.6848 7.2429 12.3762 6.94979 12.3762 6.58826C12.3762 6.22674 12.6848 5.93363 13.0653 5.93363C13.4459 5.93363 13.7544 6.22674 13.7544 6.58826C13.7542 6.94979 13.4459 7.2429 13.0653 7.2429Z" fill="white"/>
<path d="M10 0C4.478 0 0 4.2541 0 9.5C0 14.7459 4.478 19 10 19C15.522 19 20 14.7459 20 9.5C20 4.2541 15.522 0 10 0ZM15.7076 11.749C15.6798 12.3297 15.5826 12.7262 15.4407 13.0732C15.1424 13.806 14.5326 14.3852 13.7613 14.6686C13.3961 14.8035 12.9787 14.8956 12.3676 14.9222C11.7552 14.9487 11.5596 14.9551 10.0002 14.9551C8.44055 14.9551 8.24509 14.9487 7.6326 14.9222C7.02148 14.8956 6.604 14.8035 6.23886 14.6686C5.85556 14.5317 5.50858 14.317 5.22171 14.0394C4.92966 13.767 4.70367 13.4372 4.55948 13.0732C4.41757 12.7263 4.32037 12.3297 4.2926 11.7492C4.26437 11.1673 4.25781 10.9815 4.25781 9.5C4.25781 8.01852 4.26437 7.83269 4.29245 7.25097C4.32022 6.67027 4.41727 6.2738 4.55917 5.92677C4.70337 5.56278 4.9295 5.233 5.22171 4.96062C5.50842 4.68303 5.85556 4.46835 6.23871 4.33136C6.604 4.19655 7.02133 4.10435 7.6326 4.07783C8.24493 4.0513 8.44055 4.04492 10 4.04492C11.5594 4.04492 11.7551 4.0513 12.3674 4.07797C12.9787 4.10435 13.396 4.19655 13.7613 4.33121C14.1444 4.4682 14.4916 4.68303 14.7784 4.96062C15.0705 5.23315 15.2966 5.56278 15.4407 5.92677C15.5827 6.2738 15.6798 6.67027 15.7077 7.25097C15.7356 7.83269 15.7422 8.01852 15.7422 9.5C15.7422 10.9815 15.7356 11.1673 15.7076 11.749Z" fill="white"/>
</svg>
