<svg width="17" height="17" viewBox="0 0 17 17" fill="none" xmlns="http://www.w3.org/2000/svg">
<path d="M8.5 17C13.1944 17 17 13.1944 17 8.5C17 3.80558 13.1944 0 8.5 0C3.80558 0 0 3.80558 0 8.5C0 13.1944 3.80558 17 8.5 17Z" fill="#F0F0F0"/>
<path d="M8.13049 8.49999H17.0001C17.0001 7.7328 16.8978 6.98958 16.7072 6.28259H8.13049V8.49999Z" fill="#D80027"/>
<path d="M8.13049 4.06524H15.7525C15.2321 3.21617 14.5668 2.46568 13.7912 1.84784H8.13049V4.06524Z" fill="#D80027"/>
<path d="M8.50004 17C10.5005 17 12.3392 16.3086 13.7912 15.1522H3.20892C4.6609 16.3086 6.49959 17 8.50004 17Z" fill="#D80027"/>
<path d="M1.2476 12.9348H15.7525C16.1702 12.2532 16.4941 11.5081 16.7072 10.7174H0.292847C0.505911 11.5081 0.829874 12.2532 1.2476 12.9348Z" fill="#D80027"/>
<path d="M3.93736 1.32739H4.71195L3.99145 1.85084L4.26667 2.69782L3.54619 2.17437L2.82572 2.69782L3.06345 1.96612C2.42907 2.49455 1.87305 3.11366 1.41485 3.80348H1.66304L1.20441 4.13668C1.13296 4.25588 1.06443 4.37697 0.99875 4.49985L1.21776 5.17391L0.80916 4.87704C0.707592 5.09223 0.614689 5.31227 0.531184 5.53689L0.772471 6.27957H1.66304L0.942537 6.80302L1.21776 7.65L0.497283 7.12655L0.065709 7.44012C0.0225117 7.78736 0 8.14104 0 8.5H8.5C8.5 3.80561 8.5 3.25218 8.5 0C6.82085 0 5.25556 0.48709 3.93736 1.32739ZM4.26667 7.65L3.54619 7.12655L2.82572 7.65L3.10094 6.80302L2.38043 6.27957H3.27101L3.54619 5.4326L3.82138 6.27957H4.71195L3.99145 6.80302L4.26667 7.65ZM3.99145 4.32693L4.26667 5.17391L3.54619 4.65046L2.82572 5.17391L3.10094 4.32693L2.38043 3.80348H3.27101L3.54619 2.95651L3.82138 3.80348H4.71195L3.99145 4.32693ZM7.31558 7.65L6.5951 7.12655L5.87463 7.65L6.14985 6.80302L5.42934 6.27957H6.31992L6.5951 5.4326L6.87029 6.27957H7.76087L7.04036 6.80302L7.31558 7.65ZM7.04036 4.32693L7.31558 5.17391L6.5951 4.65046L5.87463 5.17391L6.14985 4.32693L5.42934 3.80348H6.31992L6.5951 2.95651L6.87029 3.80348H7.76087L7.04036 4.32693ZM7.04036 1.85084L7.31558 2.69782L6.5951 2.17437L5.87463 2.69782L6.14985 1.85084L5.42934 1.32739H6.31992L6.5951 0.480416L6.87029 1.32739H7.76087L7.04036 1.85084Z" fill="#0052B4"/>
</svg>
